<?xml version="1.0" standalone="no"?>
<!DOCTYPE svg PUBLIC "-//W3C//DTD SVG 20010904//EN"
 "http://www.w3.org/TR/2001/REC-SVG-20010904/DTD/svg10.dtd">
<svg version="1.0" xmlns="http://www.w3.org/2000/svg"
 width="485.000000pt" height="495.000000pt" viewBox="0 0 485.000000 495.000000"
 preserveAspectRatio="xMidYMid meet">

<g transform="translate(0.000000,495.000000) scale(0.100000,-0.100000)"
fill="#000000" stroke="none">
<path d="M0 4825 l0 -125 113 -2 c61 -1 169 -1 238 0 109 2 129 0 144 -14 15
-16 17 -38 13 -216 -2 -109 -1 -198 2 -198 4 0 19 14 36 31 16 17 83 73 149
125 113 88 164 134 243 217 83 88 287 176 478 207 151 24 424 7 495 -30 11 -6
28 -9 37 -6 21 7 185 -74 183 -89 0 -5 -21 -10 -45 -10 -24 0 -48 -3 -52 -7
-4 -5 35 -8 87 -8 146 -1 193 -25 345 -175 88 -87 137 -153 188 -252 13 -26
51 -90 85 -141 86 -131 169 -311 190 -412 11 -55 6 -125 -13 -177 l-15 -38 0
31 c-2 89 -90 341 -144 415 l-18 24 6 -25 c14 -60 25 -138 24 -170 l-1 -35 -7
30 c-5 21 -9 -1 -13 -70 -6 -113 -22 -159 -86 -244 -41 -54 -124 -121 -150
-121 -12 0 -12 4 2 25 9 13 16 33 16 45 0 11 7 20 15 20 13 0 14 4 5 20 -6 12
-8 30 -4 42 8 27 9 256 0 265 -3 3 -7 -14 -7 -38 -1 -24 -4 -57 -8 -74 -6 -27
-9 -22 -24 44 -9 40 -14 77 -11 82 3 5 -4 21 -15 35 -28 35 -48 106 -56 194
-7 84 -23 170 -35 185 -4 6 -13 27 -20 48 -6 21 -14 36 -17 33 -3 -2 4 -33 16
-68 29 -90 44 -202 37 -280 -8 -85 -13 -98 -40 -98 -21 0 -66 -37 -66 -54 0
-4 16 -4 36 0 48 9 44 -7 -21 -90 -41 -53 -105 -109 -105 -93 0 2 17 42 39 88
47 102 71 197 70 270 -1 51 -2 50 -14 -33 -8 -48 -21 -100 -29 -115 -8 -16
-21 -53 -30 -83 -26 -90 -138 -200 -203 -200 -13 0 -7 10 24 38 40 36 87 99
68 91 -6 -2 -35 -17 -65 -33 -59 -31 -161 -69 -167 -62 -3 2 11 37 30 78 41
87 63 171 82 316 17 129 17 122 6 122 -5 0 -13 -10 -16 -22 -15 -48 -55 -124
-83 -157 -29 -34 -30 -34 -63 -21 -49 19 -53 25 -35 53 20 30 7 68 -29 87 -20
10 -23 18 -18 49 3 27 2 32 -6 21 -6 -8 -11 -23 -11 -32 0 -26 -19 -22 -64 12
-40 30 -76 39 -76 19 0 -5 4 -8 10 -4 11 7 50 -29 50 -46 0 -8 -18 -9 -57 -4
-32 4 -61 9 -64 11 -4 2 -9 21 -13 41 -8 51 -39 99 -78 123 -37 23 -125 27
-161 9 -19 -10 -18 -8 5 17 28 30 86 183 62 163 -10 -8 -18 0 -35 35 -21 46
-61 79 -111 91 -16 4 -26 11 -23 15 5 7 -113 -31 -134 -44 -23 -14 -61 -85
-67 -126 -8 -51 17 -121 54 -151 20 -16 22 -20 7 -14 -43 16 -102 17 -132 2
-45 -24 -101 -91 -109 -132 l-6 -36 -20 20 c-25 28 -32 27 -79 -11 -43 -34
-50 -61 -20 -80 24 -15 18 -33 -28 -81 -29 -31 -34 -41 -25 -55 6 -9 22 -17
35 -17 19 0 30 12 55 57 l30 58 22 -45 c12 -25 27 -45 33 -45 7 0 0 -9 -15
-21 -31 -24 -34 -57 -7 -90 13 -17 17 -33 14 -56 -5 -31 14 -93 29 -93 5 0 11
0 16 1 4 0 13 -12 19 -28 l13 -28 -4 38 c-2 20 1 37 5 37 5 0 9 -4 9 -10 0 -5
7 -10 16 -10 9 0 14 7 12 18 -2 9 -11 16 -20 14 -12 -2 -15 3 -11 16 4 16 13
19 49 18 42 -1 43 -2 24 -15 -36 -24 -25 -41 28 -42 50 -1 48 -4 -10 -13 -46
-8 -101 -59 -119 -111 l-14 -40 -5 70 -5 70 -9 -106 c-4 -59 -4 -135 0 -170 5
-35 9 -72 8 -81 -1 -22 1 -22 20 -3 13 13 16 13 30 0 17 -18 36 -20 36 -4 0 8
5 7 15 -1 11 -9 15 -29 14 -64 -1 -28 2 -61 6 -73 6 -19 4 -23 -14 -23 -12 0
-31 5 -42 10 -13 7 -19 7 -19 1 0 -6 14 -18 30 -26 17 -9 28 -19 26 -24 -3 -4
8 -6 23 -3 30 4 71 -22 71 -45 0 -17 -82 -7 -93 12 -4 8 -17 15 -28 15 -11 0
-35 14 -52 31 -31 32 -31 32 -9 40 21 8 21 9 5 29 -11 12 -19 16 -24 9 -7 -12
-59 35 -59 53 0 6 -7 19 -16 29 -14 16 -14 18 8 30 13 6 25 13 27 15 3 2 -15
21 -39 41 -67 57 -75 91 -55 233 13 94 -4 49 -25 -66 -21 -116 -26 -263 -10
-329 12 -51 6 -55 -20 -14 -21 36 -31 67 -50 162 -11 54 -30 70 -30 25 0 -21
0 -21 -21 -2 -59 54 -86 206 -59 339 7 33 14 74 17 90 4 27 3 28 -8 10 -7 -11
-36 -57 -66 -102 -29 -44 -53 -88 -53 -98 0 -12 -6 -10 -25 11 -26 28 -32 53
-15 70 6 6 12 21 15 33 2 13 9 29 15 36 16 19 92 177 135 280 20 50 42 96 47
103 20 23 -13 13 -47 -15 -17 -16 -42 -35 -54 -43 -44 -30 -131 -138 -135
-168 -2 -16 -7 -35 -11 -42 -5 -9 -4 -11 3 -6 7 4 12 1 12 -8 0 -10 -6 -13
-15 -10 -48 19 21 144 151 278 19 19 20 29 15 90 -6 57 -4 73 11 90 17 20 17
19 18 -53 l0 -75 36 35 c19 18 51 63 71 99 32 57 86 141 141 220 21 30 14 26
-91 -53 -76 -57 -247 -222 -247 -239 0 -4 -13 -29 -30 -56 -16 -26 -30 -41
-30 -34 0 22 38 89 83 144 l42 53 -5 180 -5 180 -100 5 c-92 5 -100 7 -100 25
0 16 8 21 40 23 22 2 66 -2 99 -8 43 -8 61 -9 70 0 22 22 -16 26 -244 29 -202
2 -230 0 -230 -14 0 -12 14 -15 63 -17 34 -1 73 -1 87 0 44 4 70 -7 70 -28 0
-19 -7 -20 -110 -20 l-110 0 0 -111 0 -112 23 33 c16 24 41 41 92 62 39 15 77
28 86 28 9 0 30 -21 47 -47 17 -27 44 -68 61 -92 17 -24 31 -48 31 -53 0 -5
-17 -27 -38 -50 -27 -28 -44 -39 -55 -35 -23 9 -21 36 4 64 l22 22 -39 58
c-21 32 -40 60 -41 62 -5 8 -108 -41 -120 -57 -7 -9 -13 -37 -13 -63 0 -43 4
-51 38 -79 35 -29 45 -31 92 -19 30 8 24 -83 -6 -95 -20 -8 -45 6 -121 66
l-63 50 0 -136 0 -136 150 0 c127 0 150 -2 150 -15 0 -13 -23 -15 -150 -15
l-150 0 0 -250 c0 -227 2 -254 19 -288 38 -75 62 -177 64 -273 l2 -94 -43 2
-42 2 1 -1257 c0 -1430 -11 -1304 84 -922 122 496 248 892 276 874 5 -3 9 4 9
15 0 11 4 23 10 26 5 3 10 17 10 30 0 13 5 27 10 30 14 9 13 -1 -14 -86 -29
-88 -92 -354 -100 -419 -3 -25 -14 -109 -25 -188 -31 -217 -59 -521 -55 -580
7 -74 59 -237 97 -301 95 -160 267 -254 414 -226 47 8 30 20 -46 29 -120 16
-213 71 -289 174 -60 80 -85 134 -119 257 -28 101 -28 169 3 444 31 280 39
316 85 387 54 84 151 184 177 184 28 0 29 3 35 95 5 65 4 73 -4 45 -6 -19 -13
-54 -16 -78 -4 -36 -10 -44 -38 -58 -36 -17 -67 -48 -139 -142 -26 -35 -50
-61 -53 -58 -3 3 2 36 10 73 57 244 71 301 101 418 19 72 39 146 45 165 14 46
75 148 106 177 22 21 110 51 120 41 3 -3 0 -19 -6 -37 -17 -48 -1 -51 18 -3
l16 42 77 0 c97 0 314 -40 467 -85 65 -20 144 -41 175 -47 52 -10 57 -14 62
-42 3 -17 8 -191 12 -386 4 -195 9 -359 12 -365 4 -5 5 -18 3 -29 -5 -34 9
-66 29 -66 10 0 22 5 25 10 11 19 16 406 8 643 l-8 227 45 0 c59 0 147 23 209
55 l49 25 12 -53 c16 -75 30 -373 23 -491 -8 -123 -8 -130 -1 -183 7 -50 14
-63 34 -63 24 0 39 45 27 84 -7 23 -7 39 0 52 27 48 15 495 -17 649 l-15 70
47 42 c26 23 50 42 54 43 7 0 38 -52 74 -130 88 -183 104 -219 116 -257 7 -24
16 -43 20 -43 11 0 157 -227 180 -278 11 -24 17 -49 15 -57 -4 -9 7 -15 35
-19 83 -13 107 -50 41 -61 -56 -10 -116 -26 -111 -30 2 -2 25 1 51 7 54 11 72
4 42 -18 -37 -27 -255 -247 -255 -258 0 -6 51 41 113 104 116 117 141 140 213
188 23 15 86 57 140 93 137 92 204 119 297 119 58 0 83 -5 124 -25 28 -14 53
-34 56 -44 5 -20 30 -27 132 -37 73 -8 93 -19 37 -20 -24 0 -53 -12 -83 -32
-26 -18 -54 -32 -64 -32 -9 0 -13 -4 -10 -10 3 -5 -4 -28 -17 -50 l-23 -41
-57 3 c-32 3 -58 1 -58 -4 0 -4 25 -8 55 -8 34 0 55 -4 55 -11 0 -26 -24 -88
-35 -93 -7 -2 -56 -2 -109 1 -111 7 -122 16 -111 84 6 35 10 39 28 34 20 -6
21 -5 5 8 -10 8 -18 21 -18 30 0 18 75 101 117 128 15 10 22 19 15 19 -21 0
-79 -44 -111 -84 -60 -76 -75 -180 -36 -256 18 -35 100 -100 127 -100 24 0 52
-26 43 -40 -9 -14 -86 -58 -115 -65 -20 -5 -41 4 -94 40 -74 51 -58 49 -196
28 -19 -2 -39 -9 -45 -14 -5 -5 -22 3 -42 23 l-33 32 -108 -12 c-162 -18 -195
-16 -238 13 -21 14 -53 28 -73 31 l-36 6 0 281 c0 155 -2 347 -5 427 -5 132
-6 122 -8 -100 -2 -269 -10 -528 -18 -576 -4 -30 -8 -32 -66 -44 -83 -16 -162
-48 -347 -142 -85 -43 -162 -78 -173 -78 -10 0 -35 9 -55 20 -25 13 -57 20
-95 20 -32 0 -58 4 -58 9 0 5 -15 31 -33 58 -18 26 -33 63 -35 81 -5 62 -32
172 -56 230 -14 31 -25 49 -26 39 0 -10 7 -32 16 -49 9 -17 18 -52 21 -77 2
-25 8 -68 13 -94 6 -26 10 -51 10 -54 0 -3 -19 12 -43 33 -23 22 -62 55 -86
74 -24 19 -77 62 -116 95 -90 74 -175 135 -156 111 8 -10 35 -32 60 -49 84
-57 322 -280 376 -352 47 -63 43 -70 -58 -121 -94 -47 -251 -146 -263 -166 -8
-13 1 -8 61 32 62 41 203 115 276 144 81 32 150 34 186 6 14 -11 33 -20 43
-20 9 0 103 43 207 94 224 111 293 137 388 143 113 8 193 -40 112 -66 -48 -16
-122 -97 -157 -173 -50 -107 -41 -225 23 -309 40 -53 75 -79 116 -88 l31 -6
-45 -52 c-65 -74 -139 -108 -300 -137 -157 -29 -273 -38 -550 -40 -199 -1
-255 -8 -225 -26 8 -5 -13 -22 -61 -48 -119 -64 -231 -134 -225 -139 3 -3 55
0 116 7 102 12 112 15 130 40 22 31 85 60 130 60 36 0 40 -17 5 -26 -13 -3
-23 -11 -22 -16 1 -6 -6 -12 -16 -13 -55 -10 -62 -28 -16 -44 38 -13 411 -15
390 -2 -9 6 -10 10 -2 12 26 9 -17 40 -79 58 -83 23 -63 31 87 35 80 3 103 0
92 -8 -8 -6 -14 -22 -14 -36 0 -14 -4 -28 -9 -31 -4 -4 -3 -10 3 -13 6 -4 11
-1 11 6 0 10 2 10 8 1 5 -7 42 -13 102 -14 52 -2 101 -7 107 -12 17 -12 43 -2
43 17 0 9 10 21 23 27 19 10 20 10 11 -2 -6 -8 -11 -22 -11 -31 0 -17 34 -18
562 -18 554 0 562 0 583 21 19 17 21 27 16 56 -7 39 -8 39 76 18 21 -5 35 2
75 39 27 25 52 46 55 46 15 0 100 74 105 91 4 11 16 19 28 19 12 0 42 22 72
53 29 28 69 61 91 72 21 11 61 41 88 67 28 27 52 48 55 48 3 0 25 15 48 33 23
17 88 66 143 107 64 48 100 81 100 93 0 13 5 17 18 13 13 -4 36 10 77 49 33
30 62 55 65 55 3 0 26 17 51 38 26 20 83 66 128 100 44 35 81 70 81 78 0 8 8
14 18 14 27 0 102 68 102 92 0 16 5 19 23 14 12 -3 34 -6 50 -6 15 0 27 -4 27
-9 0 -5 -48 -49 -107 -98 -197 -163 -377 -309 -473 -384 -52 -40 -158 -126
-235 -189 -164 -136 -455 -369 -572 -459 -46 -35 -83 -65 -83 -67 0 -2 131 -4
291 -4 181 0 288 4 284 10 -3 5 -32 12 -65 16 -51 6 -93 26 -79 38 2 2 49 39
104 83 55 44 138 112 185 152 110 93 240 203 263 220 11 9 54 15 130 17 61 2
141 10 177 19 36 9 111 19 167 22 129 7 137 -3 68 -79 -25 -28 -53 -64 -61
-80 -18 -35 -25 -35 -52 2 -30 40 -92 70 -157 77 -99 10 -215 -49 -253 -130
-11 -23 -30 -50 -41 -59 -15 -13 -21 -30 -21 -56 0 -42 18 -65 60 -77 47 -13
70 -34 70 -63 0 -15 9 -42 20 -59 31 -52 96 -42 115 17 9 29 28 24 45 -13 32
-68 120 -33 120 48 0 18 7 38 17 46 29 24 92 49 123 49 33 0 35 -5 44 -100 4
-38 12 -60 25 -71 11 -9 17 -19 14 -23 -4 -3 21 -6 55 -6 l62 0 0 2344 0 2345
-31 -11 c-21 -7 -36 -22 -45 -44 -7 -18 -18 -36 -24 -39 -16 -10 -40 14 -40
41 0 17 -12 31 -41 49 -41 27 -46 42 -16 57 9 4 25 12 34 16 9 5 21 22 26 38
19 55 50 53 64 -4 6 -27 16 -39 41 -49 l32 -13 0 110 0 110 -155 0 -155 0 0
-106 c0 -72 -3 -103 -11 -99 -7 5 -8 39 -3 106 l7 99 -127 0 -126 0 0 -334 0
-335 -26 -20 c-26 -20 -38 -21 -350 -21 -177 0 -330 3 -339 6 -41 16 -45 48
-45 384 l0 320 -80 0 -80 0 -1 -182 c-1 -299 1 -361 14 -396 9 -25 9 -37 -1
-52 -15 -25 -16 -94 -1 -122 15 -28 -13 -58 -39 -42 -14 9 -16 23 -13 74 2 38
-2 71 -10 86 -10 20 -10 32 -1 58 8 22 12 119 12 304 l0 272 -1123 0 c-1111 0
-1122 0 -1135 -20 -7 -11 -22 -20 -35 -20 -13 0 -28 -5 -34 -11 -12 -12 -57
12 -67 37 -5 12 -74 14 -466 14 l-460 0 0 -125z m111 95 c17 0 9 -19 -11 -25
-23 -7 -60 2 -60 15 0 10 30 19 48 14 8 -2 18 -4 23 -4z m2193 4 c9 -3 16 -12
16 -19 0 -19 -27 -26 -58 -14 -26 10 -26 11 -8 25 22 16 28 17 50 8z m689 -4
c33 1 55 -18 25 -22 -59 -7 -78 -8 -112 -8 -21 0 -44 4 -50 7 -16 11 46 33 74
27 14 -3 42 -5 63 -4z m-513 -10 c0 -15 -27 -23 -47 -16 -15 6 -15 8 -3 16 20
13 50 12 50 0z m99 1 c22 -14 -6 -24 -46 -16 -27 5 -33 9 -22 16 18 11 50 11
68 0z m-186 -8 c-7 -2 -19 -2 -25 0 -7 3 -2 5 12 5 14 0 19 -2 13 -5z m407 3
c0 -3 -4 -8 -10 -11 -5 -3 -10 -1 -10 4 0 6 5 11 10 11 6 0 10 -2 10 -4z
m1596 -433 c-1 -193 2 -244 12 -248 7 -3 12 -15 10 -27 -2 -18 -9 -23 -33 -23
-25 0 -30 4 -33 28 -2 15 1 27 7 27 8 0 11 75 11 233 0 127 3 270 7 317 l7 85
7 -75 c3 -41 5 -184 5 -317z m-1436 362 c9 -11 8 -19 -7 -39 -22 -31 -27 -32
-54 -5 -20 20 -20 22 -3 40 20 23 47 25 64 4z m-2192 -27 c6 -8 7 -30 3 -53
-6 -36 -9 -40 -36 -40 -26 0 -30 5 -38 38 -6 26 -5 42 3 52 15 18 54 20 68 3z
m1828 -51 c59 -30 107 -81 124 -131 20 -62 8 -74 -23 -25 -33 52 -104 104
-168 123 -102 31 -196 30 -332 -3 -70 -17 -36 12 49 42 72 25 89 27 189 24 95
-3 117 -7 161 -30z m534 -7 c0 -5 11 -10 24 -10 31 0 45 -35 23 -57 -11 -12
-22 -13 -44 -6 -28 10 -41 39 -29 69 6 16 26 19 26 4z m1410 -37 c7 -162 14
-207 31 -224 21 -21 25 -69 7 -87 -17 -17 -58 -15 -80 5 -24 21 -23 58 2 83
17 17 20 33 20 125 0 63 4 105 10 105 6 0 10 -3 10 -7z m-1436 -240 c8 -34 15
-43 37 -48 15 -3 35 -15 44 -25 26 -29 15 -54 -28 -64 -33 -8 -37 -13 -37 -41
0 -57 -37 -71 -80 -30 -23 22 -29 24 -63 13 -32 -10 -40 -9 -55 6 -16 16 -16
19 4 56 l22 39 -25 22 c-13 13 -23 32 -21 44 3 17 10 20 54 19 46 -1 52 1 67
28 13 23 23 29 44 26 24 -3 29 -9 37 -45z m-1887 1 c21 -6 21 -8 7 -29 -13
-21 -19 -22 -40 -13 -23 11 -31 28 -17 41 8 8 21 9 50 1z m68 -72 c-23 -5 -37
11 -29 33 7 17 9 16 27 -6 18 -22 18 -24 2 -27z m-185 19 c0 -5 -7 -14 -15
-21 -8 -7 -15 -21 -15 -31 0 -11 -4 -19 -10 -19 -15 0 -12 28 6 55 16 25 34
33 34 16z m140 -32 c18 -33 7 -38 -18 -7 -18 22 -20 28 -8 28 8 0 20 -9 26
-21z m-119 -12 c-10 -9 -11 -8 -5 6 3 10 9 15 12 12 3 -3 0 -11 -7 -18z m69
13 c0 -5 -4 -10 -9 -10 -6 0 -13 5 -16 10 -3 6 1 10 9 10 9 0 16 -4 16 -10z
m-120 -75 c10 -12 10 -19 1 -28 -9 -9 -14 -9 -21 3 -22 34 -4 54 20 25z m43
-5 c3 -11 1 -18 -4 -14 -5 3 -9 12 -9 20 0 20 7 17 13 -6z m67 6 c0 -3 -4 -8
-10 -11 -5 -3 -10 -1 -10 4 0 6 5 11 10 11 6 0 10 -2 10 -4z m54 -46 c-19 -19
-68 -22 -89 -6 -19 15 -19 15 10 10 17 -3 41 -1 55 4 28 11 39 7 24 -8z m35
-30 c-19 -16 -44 -30 -56 -31 -13 -1 -28 -2 -35 -3 -6 -1 -13 5 -15 12 -3 8 7
12 29 12 36 1 82 22 84 39 3 23 4 25 16 13 9 -9 3 -19 -23 -42z m3375 -23 c9
-7 19 -27 22 -44 4 -26 0 -35 -21 -49 -24 -16 -27 -16 -48 2 -12 10 -24 20
-26 21 -5 3 17 49 32 71 12 15 19 15 41 -1z m-3196 -41 c62 -32 99 -171 53
-196 -16 -8 -23 -6 -34 10 -14 20 -14 19 -37 -5 -20 -21 -22 -28 -12 -50 16
-35 17 -33 -23 -41 -25 -4 -43 -1 -60 10 -13 9 -31 16 -39 16 -8 0 -26 14 -40
31 -49 58 -29 181 34 210 14 6 32 15 40 20 24 13 89 10 118 -5z m2650 -3 c-5
-25 -28 -28 -28 -4 0 12 6 21 16 21 9 0 14 -7 12 -17z m-3056 -10 c15 -3 44
-23 63 -44 30 -33 35 -46 35 -87 0 -58 -25 -102 -77 -136 -57 -38 -92 -42
-132 -14 -51 35 -71 68 -76 125 -4 62 16 99 77 143 29 22 49 29 63 25 11 -4
32 -9 47 -12z m115 -10 c12 -3 37 0 54 6 18 6 34 9 36 7 2 -2 -7 -21 -22 -41
-49 -73 -24 -177 57 -235 44 -32 102 -40 137 -18 16 10 23 7 45 -16 40 -44 43
-66 11 -92 -26 -21 -71 -43 -120 -59 -20 -6 -20 -7 -1 -21 11 -8 32 -14 48
-14 15 0 28 -5 28 -10 0 -18 -32 -74 -54 -96 -12 -11 -36 -37 -55 -58 -38 -43
-85 -66 -136 -66 -19 0 -35 -5 -35 -11 0 -17 164 -5 194 14 l24 16 27 -77 c15
-42 38 -99 52 -125 l24 -48 -26 17 c-14 9 -41 38 -61 65 -20 27 -37 49 -39 49
-8 0 35 -112 57 -151 24 -43 67 -71 127 -84 33 -7 34 -8 16 -21 -22 -16 -104
-18 -156 -4 -80 22 -179 149 -195 250 -9 54 -20 35 -29 -54 -10 -92 -31 -54
-46 82 -14 128 0 390 28 517 8 39 19 88 23 111 12 57 -3 110 -42 152 -24 25
-27 33 -13 27 11 -4 30 -10 42 -12z m2401 -11 c3 -16 -2 -22 -17 -22 -24 0
-33 13 -25 35 9 23 38 14 42 -13z m-3217 -173 c-6 -18 -11 -47 -11 -65 0 -19
-5 -34 -11 -34 -8 0 -9 11 -5 32 12 62 27 110 33 105 3 -4 0 -20 -6 -38z m409
21 c0 -5 -7 -10 -15 -10 -8 0 -15 5 -15 10 0 6 7 10 15 10 8 0 15 -4 15 -10z
m1028 -12 c36 -11 38 -17 17 -59 -13 -25 -19 -28 -35 -19 -28 15 -25 28 8 32
l27 3 -33 18 c-19 11 -41 15 -53 12 -23 -7 -145 12 -169 26 -20 12 195 0 238
-13z m-304 -14 c9 -3 16 -14 16 -23 0 -21 66 -41 173 -51 82 -7 110 -21 89
-42 -15 -15 -231 37 -275 66 -47 32 -49 68 -3 50z m140 -25 c17 -16 -2 -21
-40 -12 -53 12 -59 37 -8 27 22 -3 43 -10 48 -15z m3191 -71 c0 -47 -3 -90 -7
-94 -4 -4 -286 -9 -625 -12 -340 -2 -619 -5 -620 -6 -12 -10 -5 -1794 8 -1801
5 -4 7 -15 4 -25 -3 -10 0 -20 9 -23 19 -7 26 1 26 30 0 29 30 31 37 3 3 -11
12 -20 19 -20 8 0 14 -4 14 -9 0 -5 17 -7 38 -5 31 4 42 0 61 -20 20 -21 26
-23 59 -14 38 10 49 11 92 9 14 0 39 0 55 2 17 2 53 -3 80 -10 33 -8 51 -9 53
-2 3 6 9 6 18 -2 8 -7 25 -8 41 -4 16 4 39 9 53 12 14 2 29 8 34 13 5 5 14 6
21 4 7 -3 16 -1 19 5 4 6 13 8 20 5 8 -3 17 -1 20 4 3 6 15 8 26 5 12 -3 20 0
20 6 0 7 5 9 10 6 6 -3 10 -1 10 4 0 6 6 11 14 11 8 0 18 9 21 20 3 11 11 20
16 20 6 0 7 9 4 21 -5 13 -3 19 3 15 5 -3 12 3 15 14 3 12 1 18 -5 14 -6 -4
-5 2 1 15 6 11 13 40 15 63 2 24 7 51 11 61 4 9 3 17 -2 17 -6 0 -10 14 -11
30 0 21 4 30 15 30 9 0 13 6 9 15 -3 8 1 21 9 29 8 7 11 16 8 20 -3 3 0 12 7
21 7 8 14 26 15 39 2 14 6 39 10 56 5 22 4 30 -3 26 -6 -3 -13 -2 -17 4 -6 9
8 14 28 11 5 -1 6 3 2 9 -3 6 -10 8 -14 6 -4 -3 -5 8 -3 24 2 17 8 28 12 25 4
-2 6 9 4 26 -2 16 0 27 5 24 5 -3 12 -1 15 4 8 12 -18 21 -59 21 -19 0 -37 5
-41 11 -4 7 -9 7 -13 2 -3 -6 -30 -7 -63 -3 -32 3 -58 2 -58 -3 0 -4 -5 -5
-12 -1 -6 4 -30 7 -52 6 -44 -2 -72 10 -63 25 8 13 80 15 112 3 14 -5 25 -6
25 -2 0 9 106 9 116 0 3 -4 15 -3 26 3 10 5 23 7 29 3 8 -4 9 1 4 16 -6 18 -4
22 8 17 9 -3 19 3 26 19 8 18 8 24 -2 25 -9 0 -9 2 1 6 6 2 12 13 12 22 0 10
13 31 30 47 16 16 30 32 30 36 1 20 64 99 76 94 7 -3 16 4 20 17 l7 22 8 -23
c8 -22 7 -161 -7 -883 -4 -241 -3 -332 6 -348 7 -15 8 -26 2 -34 -6 -7 -13
-47 -17 -90 -4 -42 -10 -79 -14 -81 -3 -1 -53 5 -111 15 -58 10 -127 21 -155
25 -27 3 -66 9 -85 13 -45 10 -135 16 -230 16 -56 0 -86 -6 -121 -22 -46 -22
-89 -27 -89 -10 0 5 -12 6 -26 3 -19 -5 -24 -4 -18 6 6 10 3 9 -9 -1 -9 -7
-18 -11 -18 -7 -1 3 -2 11 -3 16 0 6 -5 14 -11 18 -11 8 -14 17 -19 63 -2 16
-14 38 -27 48 -26 22 -49 27 -49 11 0 -5 -7 -10 -15 -10 -8 0 -12 6 -10 13 3
7 -15 22 -40 35 -31 15 -45 18 -46 10 0 -10 -2 -10 -5 -1 -3 7 -12 9 -21 6
-11 -4 -14 -2 -9 5 8 13 0 14 -104 16 -75 2 -146 16 -130 26 8 5 2 10 -20 15
-18 4 -36 3 -42 -3 -6 -6 -17 -8 -25 -5 -8 3 -19 0 -23 -7 -10 -16 -33 -3 -26
15 3 8 -4 17 -15 20 -31 10 -67 66 -68 108 -2 56 -2 54 4 177 4 63 7 483 8
932 l2 818 26 25 26 26 574 6 c316 3 576 7 578 9 2 1 101 2 220 1 l216 -2 0
-87z m-4325 62 c-10 -19 -40 -28 -40 -12 0 13 23 32 37 32 11 0 11 -5 3 -20z
m379 -34 l23 -25 -21 -27 c-11 -15 -21 -21 -21 -15 0 7 -5 9 -11 5 -8 -4 -9 1
-4 16 4 14 3 20 -3 16 -5 -3 -13 1 -16 10 -3 8 -2 12 4 9 6 -3 10 3 10 14 0
28 11 26 39 -3z m1112 -88 c-25 -107 -57 -191 -79 -212 -17 -15 -20 -14 -48
15 -25 27 -26 30 -6 20 13 -7 22 -8 22 -2 0 6 -32 25 -70 43 l-71 34 38 18
c56 26 137 78 147 94 4 8 17 21 28 31 11 9 27 30 36 46 25 46 26 10 3 -87z
m-1251 56 c-6 -14 -16 -35 -24 -45 -11 -16 -15 -17 -24 -6 -8 10 -4 21 19 45
36 39 42 40 29 6z m824 0 c21 -8 20 -24 -1 -54 l-17 -24 -7 24 c-16 56 -10 67
25 54z m889 -24 c3 -11 1 -20 -4 -20 -5 0 -9 9 -9 20 0 11 2 20 4 20 2 0 6 -9
9 -20z m-1500 -30 c9 -23 18 -30 39 -30 38 0 46 -19 17 -42 -18 -15 -23 -28
-20 -54 2 -28 -1 -34 -16 -34 -11 0 -24 5 -31 12 -9 9 -15 9 -24 0 -22 -22
-48 -14 -48 15 0 15 -10 37 -21 49 -28 30 -19 54 21 54 25 0 30 4 30 23 0 47
36 51 53 7z m721 -1 c25 -20 26 -23 11 -39 -20 -22 -141 -78 -175 -81 -14 -1
-45 -1 -70 0 -42 2 -43 3 -20 14 14 6 54 24 90 40 36 17 71 29 79 28 9 -2 12
3 8 13 -4 9 2 21 16 31 28 19 29 19 61 -6z m-545 -11 c-36 -22 -69 -35 -69
-27 0 11 62 40 69 33 2 -2 2 -5 0 -6z m705 3 c18 -7 17 -9 -10 -28 -52 -37
-133 -73 -161 -72 -26 0 -27 1 -8 12 10 7 40 31 65 54 45 42 72 51 114 34z
m-1715 -42 c28 -10 31 -15 31 -50 0 -29 -4 -39 -16 -39 -8 0 -22 -7 -31 -15
-22 -22 -36 -14 -50 28 -10 28 -10 43 -1 62 13 28 21 30 67 14z m1010 7 c-2
-2 -15 -9 -29 -16 -23 -12 -24 -12 -11 3 7 10 20 17 29 17 8 0 13 -2 11 -4z
m1355 -13 c15 -52 36 -157 31 -161 -3 -3 -13 2 -22 10 -10 9 -28 19 -40 22
-13 4 -23 12 -23 17 0 18 -105 -31 -139 -65 -26 -27 -34 -43 -37 -78 -1 -23
-6 -63 -10 -88 -7 -41 -6 -44 9 -31 15 11 22 11 48 -2 30 -14 30 -15 10 -22
-11 -3 -21 -11 -21 -17 0 -6 -10 -8 -25 -4 -24 6 -25 4 -24 -36 l1 -43 14 33
c16 37 29 40 44 12 6 -12 21 -20 35 -20 30 0 33 16 6 25 -20 6 -36 34 -26 44
4 3 15 -5 25 -19 l18 -24 4 24 c3 22 5 20 23 -17 15 -31 23 -39 32 -31 20 16
15 44 -9 56 -21 10 -20 10 8 5 l32 -5 6 58 c4 33 2 74 -3 92 -13 43 -4 41 15
-4 15 -36 21 -124 10 -143 -7 -10 -10 -40 -25 -211 -12 -152 -42 -201 -175
-285 -116 -74 -258 -121 -339 -112 -90 9 -357 105 -357 128 0 4 19 18 42 31
43 24 71 61 84 111 l6 28 -37 -25 c-54 -37 -133 -36 -206 2 -55 28 -82 60 -37
44 41 -16 132 1 172 32 38 29 65 71 53 83 -4 3 -15 -1 -26 -11 -45 -41 -103
-36 -158 13 -35 30 -27 33 13 6 33 -23 74 -33 74 -20 0 3 -15 20 -32 38 -37
37 -72 127 -66 172 2 20 11 33 26 40 12 5 24 17 27 25 3 8 14 26 25 40 l19 25
-10 -44 c-5 -24 -7 -52 -4 -62 6 -17 8 -17 21 -4 9 8 21 15 28 15 18 0 38 -25
28 -35 -4 -4 4 -5 18 -2 20 5 28 1 35 -15 20 -43 40 -44 85 -5 24 20 48 34 53
30 6 -4 2 -9 -9 -14 -17 -6 -17 -7 -2 -14 10 -4 20 -15 23 -26 4 -10 10 -19
14 -19 13 0 41 111 41 158 0 43 7 51 28 30 17 -17 15 -2 -4 26 l-15 24 39 -5
c30 -4 54 1 98 21 31 14 59 25 60 23 2 -2 -12 -19 -31 -37 -19 -19 -35 -38
-35 -42 0 -14 38 -9 92 12 63 24 64 24 48 5 -23 -28 0 -15 74 40 79 59 121
107 155 173 19 37 25 42 56 42 23 0 35 -5 39 -17z m-2149 -51 c-3 -3 -11 0
-18 7 -9 10 -8 11 6 5 10 -3 15 -9 12 -12z m782 -29 c-3 -10 -5 -4 -5 12 0 17
2 24 5 18 2 -7 2 -21 0 -30z m481 -3 l37 0 -44 -20 c-23 -11 -47 -17 -52 -14
-5 3 -9 0 -9 -6 0 -16 -100 -130 -114 -130 -6 0 -21 -11 -33 -24 -19 -20 -101
-51 -110 -42 -4 3 117 86 126 86 11 0 38 52 50 97 9 34 17 44 39 49 15 3 32 7
37 9 6 2 16 2 23 -1 8 -2 30 -4 50 -4z m2192 -8 c0 -16 -121 -14 -132 2 -5 6
-8 1 -8 -11 0 -13 -4 -23 -10 -23 -5 0 -7 7 -3 16 3 9 1 19 -5 23 -6 4 27 7
73 6 62 0 85 -3 85 -13z m120 4 c0 -7 -10 -16 -22 -20 -33 -9 -35 -8 -41 14
-4 17 0 20 29 20 22 0 34 -5 34 -14z m-80 -5 c0 -6 -4 -13 -10 -16 -5 -3 -10
1 -10 9 0 9 5 16 10 16 6 0 10 -4 10 -9z m-2720 -60 c0 -46 -1 -49 -22 -43
-19 5 -20 7 -5 10 13 3 17 13 17 43 0 21 2 39 5 39 3 0 5 -22 5 -49z m-245 19
c3 -5 2 -10 -4 -10 -5 0 -13 5 -16 10 -3 6 -2 10 4 10 5 0 13 -4 16 -10z
m3049 -26 c5 -13 -56 -24 -88 -16 -17 5 -17 6 -3 17 20 15 85 14 91 -1z m-163
-4 c5 0 9 -4 9 -8 0 -5 -20 -9 -45 -8 -25 0 -45 3 -45 7 0 9 40 18 58 13 8 -2
18 -4 23 -4z m223 1 c3 -5 -5 -8 -19 -8 -14 0 -22 3 -19 8 3 5 11 9 19 9 8 0
16 -4 19 -9z m141 -11 c3 -5 -3 -10 -15 -10 -12 0 -18 5 -15 10 3 6 10 10 15
10 5 0 12 -4 15 -10z m105 -5 c0 -8 -9 -15 -20 -15 -11 0 -20 7 -20 15 0 8 9
15 20 15 11 0 20 -7 20 -15z m200 7 c0 -9 -130 -35 -138 -28 -2 3 -2 12 1 21
5 11 22 15 72 15 36 0 65 -3 65 -8z m30 -8 c0 -8 -5 -12 -10 -9 -6 4 -8 11 -5
16 9 14 15 11 15 -7z m-190 -9 c0 -8 -4 -15 -10 -15 -5 0 -10 7 -10 15 0 8 5
15 10 15 6 0 10 -7 10 -15z m-618 -57 c-15 -15 -26 -4 -18 18 5 13 9 15 18 6
9 -9 9 -15 0 -24z m266 15 c-5 -25 -28 -28 -28 -4 0 12 6 21 16 21 9 0 14 -7
12 -17z m75 1 c-4 -16 -53 -17 -53 0 0 10 8 14 28 12 15 -2 26 -7 25 -12z
m583 5 c14 -24 -41 -47 -58 -24 -5 6 -11 5 -17 -4 -5 -8 -11 -9 -15 -3 -7 12
4 21 42 32 37 11 40 11 48 -1z m-3475 -9 c15 -8 19 -21 19 -59 l0 -49 -44 16
c-41 15 -47 15 -80 -1 -25 -11 -36 -23 -36 -38 0 -20 1 -20 31 5 38 32 56 33
100 3 42 -28 48 -52 16 -61 -23 -6 -47 -42 -47 -73 0 -20 -38 -63 -55 -63 -7
0 -27 28 -45 62 -40 74 -47 156 -17 202 36 55 110 81 158 56z m735 -1 c10 -17
-13 -36 -27 -22 -12 12 -4 33 11 33 5 0 12 -5 16 -11z m2024 1 c0 -5 -1 -10
-2 -10 -2 -1 -39 -3 -83 -7 -63 -4 -78 -3 -68 7 7 7 28 11 52 8 23 -2 41 0 41
4 0 5 14 8 30 8 17 0 30 -4 30 -10z m760 -4 c0 -8 -4 -17 -9 -21 -12 -7 -24
12 -16 25 9 15 25 12 25 -4z m-172 -18 c3 -16 -5 -18 -67 -17 -67 1 -89 9 -77
27 3 5 35 8 73 8 56 -1 68 -4 71 -18z m-190 5 c53 -7 40 -30 -20 -35 -56 -5
-80 5 -72 27 5 13 35 16 92 8z m-140 -23 c-5 -24 -98 -33 -98 -10 0 11 43 25
75 25 17 0 25 -5 23 -15z m-458 -14 c0 -8 -4 -17 -9 -21 -12 -7 -24 12 -16 25
9 15 25 12 25 -4z m280 -2 c0 -8 -5 -12 -10 -9 -6 4 -8 11 -5 16 9 14 15 11
15 -7z m-3712 -31 c3 -22 -28 -40 -48 -28 -12 7 -13 38 -3 49 15 14 48 1 51
-21z m3642 17 c0 -5 -26 -10 -57 -12 l-58 -3 -6 -85 -5 -85 -2 91 c-1 50 1 94
5 97 10 11 123 8 123 -3z m475 -15 c0 -5 -15 -11 -32 -13 -30 -3 -42 6 -28 20
9 9 60 3 60 -7z m78 6 c4 -1 7 -5 7 -11 0 -5 -16 -10 -35 -10 -33 0 -43 8 -29
23 4 4 16 5 28 2 12 -2 24 -4 29 -4z m47 0 c0 -6 -4 -13 -10 -16 -5 -3 -10 1
-10 9 0 9 5 16 10 16 6 0 10 -4 10 -9z m30 -5 c0 -3 -4 -8 -10 -11 -5 -3 -10
-1 -10 4 0 6 5 11 10 11 6 0 10 -2 10 -4z m-460 -16 c0 -5 -4 -10 -10 -10 -5
0 -10 5 -10 10 0 6 5 10 10 10 6 0 10 -4 10 -10z m-382 -29 c3 -16 -1 -22 -10
-19 -7 3 -15 15 -16 27 -3 16 1 22 10 19 7 -3 15 -15 16 -27z m525 10 c8 -8 7
-11 -5 -11 -8 0 -28 -3 -44 -6 -22 -4 -32 0 -42 16 -12 20 -11 20 33 17 26 -2
51 -9 58 -16z m47 4 c0 -8 -7 -15 -15 -15 -8 0 -15 7 -15 15 0 8 7 15 15 15 8
0 15 -7 15 -15z m-3842 -12 c15 -29 22 -94 10 -87 -12 8 -38 67 -38 89 0 20
17 19 28 -2z m1282 7 c0 -5 -4 -10 -10 -10 -5 0 -10 5 -10 10 0 6 5 10 10 10
6 0 10 -4 10 -10z m64 -19 c18 -20 15 -41 -6 -41 -13 0 -37 30 -38 48 0 18 25
14 44 -7z m2103 3 c-3 -3 -12 -4 -19 -1 -8 3 -5 6 6 6 11 1 17 -2 13 -5z m73
-2 c0 -5 -13 -7 -30 -4 -16 2 -30 6 -30 8 0 2 14 4 30 4 17 0 30 -4 30 -8z
m65 -2 c3 -6 -5 -10 -19 -10 -14 0 -28 5 -31 10 -3 6 5 10 19 10 14 0 28 -4
31 -10z m65 6 c0 -3 -4 -8 -10 -11 -5 -3 -10 -1 -10 4 0 6 5 11 10 11 6 0 10
-2 10 -4z m-1283 -23 c41 -5 51 -23 13 -23 -35 0 -31 -20 14 -68 51 -55 106
-163 105 -207 0 -16 -7 -46 -14 -65 l-13 -35 -1 46 c-1 26 -7 62 -15 81 -17
39 -93 146 -121 168 -17 14 -18 13 -10 -5 48 -116 57 -152 52 -208 -7 -83 -45
-142 -110 -173 -54 -25 -102 -31 -112 -14 -3 6 2 10 13 10 28 0 72 38 88 76 8
19 14 63 14 98 0 58 -5 75 -48 160 -28 54 -46 100 -42 107 17 27 95 68 120 63
14 -2 44 -7 67 -11z m285 -11 c7 -10 21 -21 31 -25 19 -7 22 -22 7 -32 -5 -3
-10 -14 -10 -23 0 -9 -13 -23 -30 -30 -28 -13 -32 -12 -62 18 l-32 33 22 17
c12 10 22 28 22 39 0 27 34 28 52 3z m614 -34 c-3 -13 -6 -27 -6 -31 0 -5 -4
-5 -10 -2 -17 10 -12 55 6 55 12 0 15 -6 10 -22z m-2516 -37 c8 -30 7 -31 -20
-31 -39 0 -44 12 -19 44 24 31 26 30 39 -13z m2966 28 c3 -6 15 -9 25 -6 11 3
19 1 19 -4 0 -5 -15 -9 -32 -9 -18 0 -40 0 -48 -1 -46 -2 -158 5 -175 11 -11
4 10 6 46 5 36 -1 83 1 105 5 21 4 42 8 46 9 4 0 10 -4 14 -10z m129 -29 c-5
-8 -11 -8 -17 -2 -6 6 -7 16 -3 22 5 8 11 8 17 2 6 -6 7 -16 3 -22z m-1695
-38 c-6 -2 -10 -8 -10 -13 0 -6 4 -7 10 -4 19 12 47 -15 68 -63 20 -47 21 -53
7 -100 -17 -56 -108 -174 -113 -148 -6 27 -32 18 -32 -9 0 -69 -64 -142 -142
-164 -39 -11 -50 -11 -77 3 -39 21 -39 28 2 48 56 27 156 109 186 152 39 57
49 94 61 225 10 117 27 159 42 103 5 -16 3 -28 -2 -30z m1640 48 c0 -5 -4 -10
-10 -10 -5 0 -10 5 -10 10 0 6 5 10 10 10 6 0 10 -4 10 -10z m86 -17 c-10 -10
-19 5 -10 18 6 11 8 11 12 0 2 -7 1 -15 -2 -18z m112 9 c3 -10 -6 -12 -34 -10
-20 2 -39 9 -42 16 -3 10 6 12 34 10 20 -2 39 -9 42 -16z m37 0 c0 -18 -20
-15 -23 4 -3 10 1 15 10 12 7 -3 13 -10 13 -16z m-3115 -158 c89 -119 256
-192 354 -154 29 11 33 2 16 -31 -34 -62 -220 -91 -318 -49 -62 27 -118 87
-133 143 -15 56 -6 81 13 37 21 -50 64 -97 112 -124 42 -24 153 -53 163 -42 4
3 -1 6 -11 6 -31 0 -156 70 -195 109 -50 50 -77 111 -86 192 l-6 64 26 -50
c15 -27 44 -73 65 -101z m2360 116 c0 -25 -18 -36 -26 -16 -8 21 3 49 16 41 5
-3 10 -15 10 -25z m178 2 c3 -18 -2 -22 -22 -22 -29 0 -31 3 -15 31 13 25 33
20 37 -9z m-2898 -22 c0 -5 -5 -10 -11 -10 -5 0 -7 5 -4 10 3 6 8 10 11 10 2
0 4 -4 4 -10z m228 -23 c32 -29 32 -119 0 -141 -58 -41 -138 7 -138 82 0 42
17 64 60 80 30 11 47 6 78 -21z m-809 -13 c13 -17 26 -24 37 -20 21 8 54 -11
54 -31 0 -9 -7 -24 -15 -33 -11 -13 -13 -24 -7 -41 14 -37 4 -49 -41 -49 -23
0 -48 -7 -58 -16 -25 -22 -48 -11 -56 27 -3 19 -15 35 -29 41 -40 19 -26 78
18 78 10 0 18 7 18 16 0 27 20 54 40 54 10 0 28 -12 39 -26z m3297 -41 c-13
-13 -28 15 -20 38 l7 24 10 -28 c5 -16 6 -31 3 -34z m388 31 c4 -9 4 -19 1
-22 -3 -3 -5 -1 -5 5 0 6 -7 10 -16 9 -9 0 -19 5 -21 12 -7 19 34 15 41 -4z
m-184 -14 c0 -22 -25 -27 -50 -10 -13 9 -13 11 0 20 25 17 50 12 50 -10z m120
4 c0 -11 -5 -14 -16 -10 -9 3 -18 6 -20 6 -3 0 -2 5 1 10 10 16 35 12 35 -6z
m-230 -70 c13 -32 13 -31 -5 -38 -17 -6 -39 29 -31 50 8 22 26 17 36 -12z
m-90 -4 c0 -11 -7 -20 -15 -20 -8 0 -15 9 -15 20 0 11 7 20 15 20 8 0 15 -9
15 -20z m268 -3 c3 -16 -3 -18 -65 -15 -54 2 -68 6 -71 20 -3 14 6 16 65 15
56 -2 68 -5 71 -20z m-268 -67 c0 -11 -7 -20 -15 -20 -8 0 -15 9 -15 20 0 11
7 20 15 20 8 0 15 -9 15 -20z m60 9 c0 -5 5 -7 12 -3 6 4 33 8 60 8 39 1 48
-2 48 -16 0 -16 -10 -18 -72 -17 -83 1 -94 5 -77 25 14 17 29 18 29 3z m280
-8 c0 -19 -6 -21 -55 -21 -39 0 -55 4 -55 13 0 20 4 22 59 25 46 3 51 1 51
-17z m21 -4 c-10 -9 -11 -8 -5 6 3 10 9 15 12 12 3 -3 0 -11 -7 -18z m-2799
-81 c-3 -5 -13 2 -23 15 -10 13 -24 31 -32 40 -12 14 -12 17 2 26 13 9 20 3
38 -31 11 -22 18 -45 15 -50z m2828 64 c0 -5 -2 -10 -4 -10 -3 0 -8 5 -11 10
-3 6 -1 10 4 10 6 0 11 -4 11 -10z m-3172 -41 c46 -40 103 -65 170 -74 29 -4
52 -12 52 -18 0 -26 -42 -78 -75 -94 -45 -21 -45 -33 0 -33 38 0 103 28 124
54 10 12 17 13 27 5 16 -13 37 -2 28 13 -4 7 -2 8 4 4 19 -11 14 5 -5 21 -16
12 -15 12 8 2 28 -12 29 -38 3 -60 -8 -6 -14 -17 -14 -25 0 -7 -15 -23 -32
-36 -18 -13 -62 -51 -97 -85 -36 -35 -68 -63 -73 -63 -4 0 -44 18 -89 40 -85
42 -99 46 -99 31 0 -5 69 -39 153 -76 83 -37 213 -100 289 -141 198 -106 442
-276 457 -318 6 -15 19 2 63 80 76 135 117 219 140 284 24 72 41 187 29 207
-10 18 -11 12 -31 -107 -14 -82 -29 -130 -41 -130 -5 0 -9 4 -9 9 0 4 -34 59
-75 120 -59 88 -73 116 -66 130 22 40 34 42 125 21 48 -11 95 -20 104 -20 39
0 202 -217 202 -269 0 -36 -42 -118 -83 -161 -72 -76 -107 -94 -107 -54 0 21
-47 17 -70 -6 -11 -11 -20 -27 -20 -35 0 -8 9 -19 20 -25 11 -6 20 -14 20 -19
0 -5 -30 -23 -67 -41 -70 -35 -223 -64 -230 -44 -11 34 -80 135 -94 139 -26 9
-59 -12 -59 -37 0 -11 14 -36 30 -55 57 -64 58 -64 -180 2 -211 58 -405 93
-528 93 -87 0 -166 -23 -213 -62 -18 -16 -44 -33 -58 -38 -15 -6 -21 -12 -14
-15 8 -3 -7 -44 -48 -125 -70 -139 -65 -138 -178 -63 -94 62 -131 106 -131
155 0 37 35 166 50 183 4 4 16 -16 26 -45 12 -32 25 -53 34 -53 27 0 12 56
-47 170 -49 96 -57 119 -61 180 l-4 71 67 62 c84 77 100 79 90 16 -5 -36 -4
-45 7 -42 8 3 19 45 30 108 9 57 19 109 22 117 5 13 54 37 126 63 19 7 80 29
136 48 l101 36 43 -37 c39 -33 92 -57 128 -57 23 0 12 18 -15 25 -31 7 -93 62
-93 81 0 12 18 20 49 23 7 0 29 -13 49 -30z m2782 -14 c0 -14 -6 -25 -13 -25
-8 0 -13 9 -11 23 3 28 2 27 14 27 6 0 10 -11 10 -25z m355 13 c37 -17 31 -24
-20 -23 -25 0 -45 5 -45 11 0 26 25 31 65 12z m-120 -10 c-31 -19 -134 -21
-152 -3 -13 13 -4 15 79 15 76 -1 89 -3 73 -12z m185 5 c0 -5 -5 -15 -10 -23
-8 -12 -10 -11 -10 8 0 12 5 22 10 22 6 0 10 -3 10 -7z m30 -13 c0 -5 -2 -10
-4 -10 -3 0 -8 5 -11 10 -3 6 -1 10 4 10 6 0 11 -4 11 -10z m-2964 -63 c-3
-18 -13 -42 -20 -53 -13 -17 -13 -14 -4 26 16 69 18 73 24 67 4 -3 4 -21 0
-40z m1885 18 c-1 -15 -24 -12 -29 3 -3 9 2 13 12 10 10 -1 17 -7 17 -13z
m629 -25 c0 -16 -4 -30 -10 -30 -5 0 -10 14 -10 30 0 17 5 30 10 30 6 0 10
-13 10 -30z m89 -47 c-1 -69 -2 -73 -10 -38 -11 56 -11 115 1 115 6 0 10 -32
9 -77z m159 49 c4 -12 -33 -13 -106 -2 -2 0 -1 4 2 8 8 14 99 8 104 -6z m114
-4 c-15 -15 -80 -14 -95 1 -8 8 5 11 48 11 46 0 56 -3 47 -12z m42 -3 c-6 -16
-24 -21 -24 -7 0 11 11 22 21 22 5 0 6 -7 3 -15z m-2606 -42 c-7 -16 -18 -35
-25 -44 -19 -23 -8 -28 39 -18 39 9 41 9 90 -41 27 -27 55 -50 63 -50 23 0 25
-14 9 -59 -8 -24 -12 -52 -8 -63 5 -17 3 -19 -18 -13 -41 12 -121 56 -170 93
-49 37 -108 103 -108 121 0 6 12 31 27 56 26 42 31 45 70 45 l43 0 -12 -27z
m3022 -33 c0 -6 -9 -10 -19 -10 -11 0 -26 -3 -35 -6 -12 -5 -16 0 -16 18 0 14
3 27 6 31 9 8 64 -21 64 -33z m-820 -6 c0 -26 -17 -33 -26 -9 -8 20 3 48 16
40 5 -3 10 -17 10 -31z m140 32 c0 -2 3 -11 6 -20 7 -18 -12 -21 -35 -7 -16
10 -6 31 15 31 8 0 14 -2 14 -4z m340 -4 c0 -4 34 -6 76 -4 47 3 80 0 87 -7 8
-8 5 -11 -13 -12 -14 -1 -42 -2 -63 -3 -21 -2 -40 1 -43 5 -2 5 -16 4 -30 -1
-34 -13 -34 -13 -34 10 0 11 5 20 10 20 6 0 10 -3 10 -8z m427 -8 c5 -14 -11
-33 -28 -34 -14 0 -19 34 -7 42 19 12 28 10 35 -8z m-607 -4 c11 -7 -3 -10
-47 -10 -36 0 -63 4 -63 10 0 13 90 13 110 0z m110 -4 c0 -7 -16 -10 -45 -8
-25 2 -43 8 -40 12 8 13 85 9 85 -4z m266 -12 c-4 -9 -9 -15 -11 -12 -3 3 -3
13 1 22 4 9 9 15 11 12 3 -3 3 -13 -1 -22z m58 17 c3 -5 0 -14 -8 -20 -11 -9
-15 -7 -19 9 -5 20 16 29 27 11z m-3117 -24 c0 -23 61 -104 107 -142 55 -45
189 -122 227 -130 16 -4 29 -10 29 -13 0 -12 -91 -177 -107 -195 -16 -17 -17
-16 -37 1 -12 10 -63 45 -115 77 -56 35 -112 81 -140 112 -47 55 -101 139
-101 160 0 6 16 20 35 32 19 11 49 41 67 66 17 25 32 45 33 45 1 0 2 -6 2 -13z
m2769 -65 c-18 -16 -19 -16 -12 1 3 10 6 24 6 30 0 8 4 7 12 -1 10 -9 8 -16
-6 -30z m-1321 8 c0 -8 -8 -16 -17 -18 -13 -2 -18 3 -18 18 0 15 5 20 18 18 9
-2 17 -10 17 -18z m935 -16 c0 -24 -4 -34 -12 -32 -24 8 -22 68 2 68 5 0 10
-16 10 -36z m208 13 c3 -14 -4 -17 -32 -17 -39 0 -47 13 -18 29 24 15 46 9 50
-12z m130 5 c3 -10 -8 -12 -47 -10 -34 2 -51 7 -51 16 0 18 92 12 98 -6z m102
3 c0 -8 -7 -15 -15 -15 -16 0 -20 12 -8 23 11 12 23 8 23 -8z m203 6 c5 -1 6
-5 3 -9 -7 -11 -156 -13 -156 -2 0 13 67 17 153 11z m85 -9 c2 -7 -6 -12 -17
-12 -21 0 -27 11 -14 24 9 9 26 2 31 -12z m-1403 -43 c54 -15 130 -93 139
-143 4 -23 11 -34 18 -30 6 4 17 -1 24 -11 17 -23 1 -55 -27 -55 -11 0 -32 -9
-47 -20 -67 -48 -275 -53 -331 -7 -8 7 -28 16 -45 22 -23 8 -32 17 -34 38 -2
19 1 27 12 27 10 0 27 25 44 63 31 67 59 92 127 113 51 16 70 17 120 3z m1115
-24 c0 -8 -4 -15 -10 -15 -5 0 -10 7 -10 15 0 8 5 15 10 15 6 0 10 -7 10 -15z
m100 0 c0 -8 -4 -15 -10 -15 -5 0 -10 7 -10 15 0 8 5 15 10 15 6 0 10 -7 10
-15z m-439 -23 c7 -19 5 -22 -16 -22 -18 0 -25 6 -25 18 0 38 28 41 41 4z
m104 18 c6 -10 -1 -14 -47 -24 -21 -5 -28 -2 -28 8 0 13 17 20 57 25 6 0 15
-4 18 -9z m191 -5 c0 -6 -26 -11 -58 -12 -54 -2 -68 4 -51 20 10 10 108 3 109
-8z m104 5 c0 -5 -4 -10 -10 -10 -5 0 -10 5 -10 10 0 6 5 10 10 10 6 0 10 -4
10 -10z m-500 -25 c0 -16 -6 -25 -15 -25 -15 0 -21 31 -8 43 13 14 23 6 23
-18z m-1889 -99 c52 -85 69 -149 49 -186 -11 -21 -14 -18 -57 52 -25 40 -56
85 -69 99 -22 23 -24 31 -18 87 7 61 7 62 26 45 11 -10 42 -53 69 -97z m-661
69 c0 -9 -40 -45 -50 -45 -17 0 -11 17 13 33 23 16 37 21 37 12z m2707 -17
c54 -20 36 -35 -34 -29 -13 1 -23 -4 -23 -11 0 -7 -9 -4 -21 9 -39 39 6 57 78
31z m383 -10 c0 -6 6 -5 15 2 12 10 15 9 15 -7 0 -18 -8 -19 -170 -16 -94 2
-173 3 -176 3 -4 0 -1 7 6 15 10 12 35 15 112 14 55 0 101 1 103 3 8 8 95 -5
95 -14z m-1805 2 c10 -16 -6 -80 -20 -80 -18 0 -28 46 -15 70 12 22 25 26 35
10z m1263 -12 c-5 -32 -28 -35 -28 -4 0 17 5 26 16 26 10 0 14 -7 12 -22z
m-1148 -37 c0 -16 -38 -41 -54 -35 -21 8 -21 40 1 53 18 10 53 -2 53 -18z m88
1 c4 -28 -24 -41 -44 -20 -20 20 -7 50 20 46 13 -2 22 -12 24 -26z m-1445 6
c40 -19 33 -27 -13 -15 -22 6 -40 15 -40 19 0 12 22 10 53 -4z m1155 -15 c5
-17 -26 -29 -40 -15 -6 6 -7 15 -3 22 9 14 37 9 43 -7z m1352 -29 c0 -15 -6
-24 -15 -24 -15 0 -21 40 -9 53 12 11 24 -3 24 -29z m445 22 c28 -2 56 -4 63
-5 6 0 12 -8 12 -16 0 -12 -18 -15 -102 -15 -113 0 -139 8 -115 32 10 9 29 13
53 11 22 -2 62 -5 89 -7z m-247 -13 c2 -9 -10 -13 -42 -13 -42 0 -55 7 -40 23
11 11 77 2 82 -10z m47 7 c3 -5 1 -10 -4 -10 -6 0 -11 5 -11 10 0 6 2 10 4 10
3 0 8 -4 11 -10z m320 -10 c3 -5 1 -10 -4 -10 -6 0 -11 5 -11 10 0 6 2 10 4
10 3 0 8 -4 11 -10z m23 -52 c17 1 23 -3 20 -16 -3 -13 -15 -18 -62 -20 -32
-2 -63 1 -69 7 -13 13 43 42 68 34 11 -4 30 -6 43 -5z m-588 -33 c0 -24 -5
-35 -15 -35 -10 0 -15 11 -15 35 0 24 5 35 15 35 10 0 15 -11 15 -35z m269 19
c38 -8 11 -22 -50 -26 -52 -3 -89 10 -89 32 0 7 96 3 139 -6z m181 -6 c0 -15
-8 -18 -50 -18 -43 0 -50 3 -50 20 0 18 6 20 50 19 41 -2 50 -5 50 -21z m190
-3 c0 -14 -4 -25 -10 -25 -5 0 -10 11 -10 25 0 14 5 25 10 25 6 0 10 -11 10
-25z m40 1 c0 -3 -4 -8 -10 -11 -5 -3 -10 -1 -10 4 0 6 5 11 10 11 6 0 10 -2
10 -4z m-570 -79 c0 -14 -6 -18 -27 -15 -22 2 -27 8 -25 23 2 11 9 26 15 33 9
11 13 11 24 -4 7 -10 13 -26 13 -37z m-730 4 c0 -15 -9 -36 -20 -46 -16 -15
-22 -16 -35 -5 -25 21 -16 73 15 81 33 8 40 3 40 -30z m-176 23 c22 -8 22 -72
0 -81 -21 -8 -42 15 -50 55 -6 28 -4 32 14 32 11 0 27 -3 36 -6z m796 -40 c0
-15 -6 -24 -15 -24 -15 0 -21 40 -9 53 12 11 24 -3 24 -29z m8 -46 c21 -21 14
-48 -12 -48 -30 0 -40 13 -31 40 7 23 25 26 43 8z m-1158 -13 c7 -9 19 -14 27
-11 31 12 41 -4 41 -70 0 -66 -5 -72 -39 -54 -15 8 -23 7 -35 -5 -20 -20 -63
-19 -71 1 -3 8 0 27 6 41 10 21 9 29 -4 43 -20 22 -19 25 7 50 26 24 51 26 68
5z m-861 -19 c7 -8 8 -17 3 -20 -6 -3 -12 3 -15 14 -6 24 -4 25 12 6z m111
-22 c0 -8 -4 -14 -10 -14 -5 0 -10 9 -10 21 0 11 5 17 10 14 6 -3 10 -13 10
-21z m1908 -42 c3 -16 -2 -22 -17 -22 -24 0 -35 15 -27 36 9 23 40 13 44 -14z
m-1945 1 c-7 -2 -13 -11 -13 -19 0 -9 -5 -12 -10 -9 -13 8 6 35 24 34 7 0 6
-2 -1 -6z m227 -17 c0 -11 -19 -15 -25 -6 -3 5 1 10 9 10 9 0 16 -2 16 -4z
m1805 -48 c-3 -24 -3 -38 0 -32 3 6 26 8 63 4 31 -4 90 -6 130 -5 76 1 95 -15
31 -26 -46 -7 -233 10 -237 22 -2 5 -10 9 -18 9 -20 0 -18 47 4 59 29 17 32
13 27 -31z m233 18 c4 -17 -2 -18 -86 -13 -91 5 -112 10 -112 28 0 6 39 9 97
7 86 -3 98 -5 101 -22z m-325 -48 c7 -49 -3 -66 -26 -44 -12 12 -16 52 -8 84
1 1 7 2 15 2 8 0 16 -16 19 -42z m-831 15 c25 -22 23 -50 -6 -68 -20 -14 -28
-14 -45 -3 -29 18 -28 66 2 78 30 12 28 12 49 -7z m1225 -34 c2 -16 -1 -19 -9
-11 -5 5 -7 15 -4 21 10 15 12 14 13 -10z m62 10 c17 -6 31 -15 31 -20 0 -14
-20 -11 -21 4 0 10 -2 10 -6 0 -6 -17 -40 -16 -46 1 -3 8 -3 17 0 20 8 8 4 8
42 -5z m-2154 -9 c3 -5 1 -10 -4 -10 -6 0 -11 5 -11 10 0 6 2 10 4 10 3 0 8
-4 11 -10z m1703 -78 c3 -16 -2 -22 -16 -22 -24 0 -38 30 -20 42 19 12 33 4
36 -20z m-688 -55 c0 -61 14 -80 68 -92 42 -9 43 -35 0 -35 -44 0 -68 -25 -68
-72 0 -55 -26 -51 -34 6 -8 52 -18 62 -69 71 -46 9 -44 28 4 36 51 8 57 15 64
67 8 61 12 72 25 72 5 0 10 -23 10 -53z m-981 -29 c-1 -59 -1 -61 -11 -28 -5
19 -14 41 -20 47 -13 16 -3 43 17 43 12 0 15 -13 14 -62z m435 26 c25 -24 -5
-71 -38 -58 -21 8 -30 42 -16 59 16 19 35 19 54 -1z m281 -19 c29 -28 32 -61
9 -93 -18 -26 -44 -28 -84 -7 -47 24 -39 84 15 113 28 16 33 15 60 -13z
m-1111 -58 c9 -54 0 -110 -14 -86 -14 22 -32 117 -25 129 13 22 30 2 39 -43z
m392 -35 c14 -9 18 -206 4 -197 -5 3 -10 15 -10 26 0 10 -3 19 -7 19 -5 0 -8
36 -9 80 -1 80 1 86 22 72z m1369 -2 c3 -5 1 -10 -4 -10 -6 0 -11 5 -11 10 0
6 2 10 4 10 3 0 8 -4 11 -10z m-1755 -117 c0 -28 -4 -43 -12 -43 -24 0 -50 85
-32 103 3 3 15 1 25 -6 14 -9 19 -23 19 -54z m0 -168 c0 -88 -9 -115 -29 -91
-8 9 -11 39 -9 83 1 37 -1 78 -5 90 -7 20 -6 21 17 10 25 -11 26 -16 26 -92z
m395 -5 c0 -13 -5 -25 -11 -27 -13 -4 -26 35 -18 49 10 16 29 2 29 -22z m2440
-5 c171 -19 311 -35 313 -35 5 0 1 -320 -8 -500 -7 -161 -12 -197 -25 -206 -9
-7 -16 -23 -15 -36 1 -13 2 -28 1 -35 -2 -26 -239 -95 -369 -108 -72 -7 -74
-7 -63 13 6 11 77 78 158 149 176 155 223 205 223 237 0 14 5 28 10 31 16 10
13 185 -3 191 -8 3 -42 8 -78 12 -53 6 -64 10 -67 27 -2 11 -11 26 -20 33 -23
17 -102 15 -123 -4 -16 -14 -19 -14 -38 5 -24 24 -99 29 -119 9 -9 -9 -16 -8
-29 3 -23 19 -110 24 -129 8 -12 -9 -17 -9 -27 3 -7 9 -35 18 -64 21 -42 5
-56 2 -77 -14 -21 -17 -28 -18 -45 -7 -16 10 -27 10 -54 0 -43 -16 -57 -15
-57 2 0 15 41 42 199 132 160 90 185 104 191 104 3 0 145 -16 315 -35z m-619
-74 c-11 -17 -96 -62 -106 -56 -16 10 -12 37 8 51 19 15 106 19 98 5z m-178
-14 c28 -19 103 -217 81 -217 -4 0 -14 -3 -22 -6 -11 -4 -29 24 -67 101 -29
58 -62 111 -73 117 -19 10 -19 9 2 -20 39 -56 71 -138 77 -201 7 -61 6 -63
-15 -59 -17 2 -29 20 -52 73 -35 85 -72 132 -128 163 -53 30 -52 16 2 -23 44
-32 88 -101 111 -175 8 -25 17 -53 21 -62 6 -14 2 -18 -19 -18 -19 0 -38 16
-80 69 -61 76 -100 111 -125 111 -10 0 -39 -10 -66 -23 l-48 -24 31 -21 c16
-12 34 -22 40 -22 5 0 21 -9 36 -21 30 -23 35 -59 9 -60 -45 -2 -108 4 -131
12 -24 9 -24 12 -19 72 8 89 24 134 61 174 51 56 97 69 239 68 67 0 128 -4
135 -8z m-2051 -189 c-3 -8 -6 -5 -6 6 -1 11 2 17 5 13 3 -3 4 -12 1 -19z
m1794 -31 c-8 -8 -11 -7 -11 4 0 20 13 34 18 19 3 -7 -1 -17 -7 -23z m-381
-41 c0 -9 -7 -12 -20 -9 -31 8 -34 23 -6 23 16 0 26 -6 26 -14z m1340 0 c0
-25 -27 -38 -66 -30 -37 7 -37 7 -15 23 28 22 81 26 81 7z m-906 -51 c-38 -30
-58 -35 -24 -6 19 16 37 28 39 25 3 -2 -4 -11 -15 -19z m801 -35 c-17 -19 -75
-28 -75 -12 0 18 26 32 59 32 33 0 34 0 16 -20z m-1736 -76 c-22 -27 -62 -42
-132 -49 -37 -4 -70 -11 -73 -16 -2 -5 25 -6 61 -2 44 4 65 2 65 -5 0 -6 -5
-14 -11 -18 -6 -3 -17 -20 -24 -38 -12 -28 -19 -32 -77 -42 l-63 -12 58 -1 59
-1 -7 -32 c-15 -69 -27 -83 -80 -90 -28 -3 -94 -7 -147 -7 l-98 -1 0 43 c0 66
6 70 117 77 l98 7 -85 2 c-47 1 -90 5 -97 9 -18 11 32 90 62 98 14 3 22 11 19
19 -10 25 45 55 105 56 31 1 81 4 111 9 30 4 77 8 104 9 43 1 47 -1 35 -15z
m369 -51 c62 -86 122 -180 122 -194 0 -29 -40 4 -91 76 -81 115 -128 155 -181
155 -23 0 -39 3 -36 6 6 5 84 20 120 23 9 1 37 -27 66 -66z m50 7 c41 -38 72
-92 72 -125 0 -26 -14 -17 -35 22 -11 20 -33 53 -48 72 -62 78 -57 94 11 31z
m-233 21 c78 -9 81 -10 119 -52 21 -24 60 -76 87 -116 27 -39 53 -74 59 -78
18 -11 10 -25 -15 -25 -16 0 -33 12 -52 36 -75 98 -146 174 -166 178 -51 11
-162 16 -140 6 12 -5 48 -10 80 -11 54 -2 60 -5 98 -46 59 -65 145 -197 135
-207 -18 -18 -64 8 -139 80 l-79 75 -69 -7 c-94 -9 -104 -17 -50 -38 35 -13
62 -36 116 -101 48 -58 66 -85 56 -89 -25 -9 -75 12 -124 53 -43 36 -57 42
-127 52 -112 15 -105 9 -88 79 19 81 32 106 94 168 59 58 58 58 205 43z m745
4 c0 -2 -10 -9 -22 -15 -22 -11 -22 -10 -4 4 21 17 26 19 26 11z m-230 -20 c0
-8 -151 -107 -157 -102 -6 7 58 57 109 84 46 25 48 25 48 18z m-516 -190 c8
-21 -23 -35 -51 -22 l-24 11 23 13 c31 16 45 16 52 -2z m-344 -105 c0 -5 -5
-20 -11 -34 -13 -27 -21 -29 -168 -47 -105 -12 -114 -9 -126 48 l-6 32 98 4
c54 1 124 4 156 5 31 1 57 -2 57 -8z m1200 -90 c0 -5 -9 -10 -21 -10 -11 0
-17 5 -14 10 3 6 13 10 21 10 8 0 14 -4 14 -10z m-1416 -55 c-5 -12 -10 -13
-20 -4 -19 15 -18 19 6 19 13 0 18 -5 14 -15z m2586 -89 c0 -40 -10 -49 -39
-38 l-20 7 20 33 c27 41 39 41 39 -2z m-224 5 c46 -21 104 -85 104 -115 0 -11
12 -30 27 -41 34 -28 27 -71 -15 -81 -15 -4 -34 -13 -43 -21 -23 -20 -114 -43
-169 -43 -56 0 -152 22 -182 42 -13 8 -35 18 -50 21 -42 11 -46 44 -9 78 17
15 31 34 31 41 0 30 52 87 102 112 64 32 143 35 204 7z m-2063 -78 c-7 -2 -21
-2 -30 0 -10 3 -4 5 12 5 17 0 24 -2 18 -5z m242 -38 l40 -14 -40 6 c-22 3
-56 9 -75 13 l-35 8 35 0 c19 0 53 -6 75 -13z m82 -21 c-3 -3 -12 -4 -19 -1
-8 3 -5 6 6 6 11 1 17 -2 13 -5z m206 -39 c20 -4 37 -11 37 -16 0 -17 -48 -20
-78 -5 -41 21 -53 41 -21 33 13 -3 41 -9 62 -12z m-913 -78 c-27 -25 -175
-114 -200 -121 -19 -6 -21 -5 -10 3 12 8 13 12 2 23 -11 11 -16 10 -25 -3 -25
-33 -145 -55 -133 -24 3 8 0 15 -7 15 -8 0 -7 4 3 10 9 5 17 5 21 -1 3 -6 11
-4 19 6 7 8 19 15 26 15 8 0 14 6 15 13 0 9 2 9 6 -1 4 -10 8 -10 18 -2 10 8
19 8 33 1 15 -8 21 -7 25 3 3 7 36 23 74 33 37 11 84 25 103 31 19 5 37 10 40
11 2 1 -2 -5 -10 -12z m2281 -67 c25 -14 24 -52 -2 -76 -21 -19 -21 -18 -40 5
-19 23 -25 61 -12 74 9 10 31 9 54 -3z m179 -24 c0 -35 -21 -66 -44 -66 -20 0
-36 22 -36 50 0 34 17 50 52 50 25 0 28 -3 28 -34z m-3150 -10 c0 -3 -4 -8
-10 -11 -5 -3 -10 -1 -10 4 0 6 5 11 10 11 6 0 10 -2 10 -4z m304 -12 c9 -24
4 -24 -18 -3 -16 16 -17 19 -4 19 9 0 19 -7 22 -16z m-29 -24 c3 -5 1 -10 -4
-10 -6 0 -11 5 -11 10 0 6 2 10 4 10 3 0 8 -4 11 -10z"/>
<path d="M4520 4434 c0 -9 5 -14 12 -12 18 6 21 28 4 28 -9 0 -16 -7 -16 -16z"/>
<path d="M1300 4107 c-12 -21 -12 -21 6 -7 10 8 20 15 22 16 2 1 -1 4 -5 7 -5
3 -15 -4 -23 -16z"/>
<path d="M1445 4100 c3 -5 8 -10 11 -10 2 0 4 5 4 10 0 6 -5 10 -11 10 -5 0
-7 -4 -4 -10z"/>
<path d="M1386 4071 c6 -26 4 -30 -10 -25 -9 3 -16 1 -16 -5 0 -7 7 -14 15
-17 22 -9 18 -24 -5 -24 -26 0 -37 27 -21 52 14 23 9 33 -14 24 -41 -15 -16
-86 30 -86 34 0 61 43 49 77 -14 40 -35 42 -28 4z"/>
<path d="M1462 4050 c0 -14 2 -19 5 -12 2 6 2 18 0 25 -3 6 -5 1 -5 -13z"/>
<path d="M1280 4000 c0 -5 10 -15 23 -21 22 -12 22 -12 3 10 -21 23 -26 26
-26 11z"/>
<path d="M1350 3950 c20 -13 33 -13 25 0 -3 6 -14 10 -23 10 -15 0 -15 -2 -2
-10z"/>
<path d="M1015 4120 c-3 -6 -22 -9 -41 -8 -38 2 -58 -13 -69 -52 -6 -21 -3
-20 14 8 18 27 27 32 60 32 36 0 61 14 48 26 -3 3 -8 0 -12 -6z"/>
<path d="M958 4064 c-22 -11 -28 -22 -28 -48 0 -44 19 -59 65 -50 55 10 71 53
35 92 -24 26 -35 27 -72 6z m46 -28 c23 9 29 -16 10 -37 -36 -40 -74 -13 -52
37 9 20 13 22 20 10 5 -8 15 -13 22 -10z"/>
<path d="M1077 4059 c4 -13 8 -18 11 -10 2 7 -1 18 -6 23 -8 8 -9 4 -5 -13z"/>
<path d="M886 4022 c-2 -4 -1 -14 5 -22 7 -12 9 -10 9 8 0 23 -5 28 -14 14z"/>
<path d="M1077 4014 c-4 -4 -7 -14 -7 -23 0 -11 3 -12 11 -4 6 6 10 16 7 23
-2 6 -7 8 -11 4z"/>
<path d="M1028 3942 c-10 -2 -18 -8 -18 -13 0 -13 27 -11 35 2 9 13 4 16 -17
11z"/>
<path d="M944 3926 c23 -19 32 -20 41 -6 3 6 0 10 -9 10 -8 0 -23 3 -33 6 -16
5 -16 4 1 -10z"/>
<path d="M3231 3862 c-8 -15 -6 -23 10 -38 18 -17 21 -17 37 -1 13 13 14 21 6
35 -16 24 -41 26 -53 4z"/>
<path d="M3555 3861 c-3 -6 0 -11 9 -11 8 0 17 -6 20 -12 3 -7 5 -4 3 6 -2 22
-22 32 -32 17z"/>
<path d="M4655 2870 c-3 -5 -2 -10 4 -10 5 0 13 5 16 10 3 6 2 10 -4 10 -5 0
-13 -4 -16 -10z"/>
<path d="M3940 1660 c-12 -8 -11 -10 8 -10 12 0 22 5 22 10 0 13 -11 13 -30 0z"/>
<path d="M895 3739 c-10 -15 3 -25 16 -12 7 7 7 13 1 17 -6 3 -14 1 -17 -5z"/>
<path d="M1541 3318 c5 -18 9 -34 9 -35 0 -8 74 -83 81 -83 5 0 -9 18 -31 40
-31 31 -40 48 -40 75 0 24 -5 35 -14 35 -12 0 -13 -7 -5 -32z"/>
<path d="M1990 2970 c0 -5 14 -10 30 -10 17 0 30 5 30 10 0 6 -13 10 -30 10
-16 0 -30 -4 -30 -10z"/>
<path d="M1060 3171 c0 -11 5 -23 10 -26 6 -3 10 3 10 14 0 11 -4 23 -10 26
-5 3 -10 -3 -10 -14z"/>
<path d="M1042 3108 c2 -6 10 -14 16 -16 7 -2 10 2 6 12 -7 18 -28 22 -22 4z"/>
<path d="M1111 3102 c-7 -13 -11 -26 -8 -28 8 -8 29 25 25 38 -3 8 -9 4 -17
-10z"/>
<path d="M420 2822 c0 -10 37 -45 60 -57 8 -4 -1 8 -19 28 -37 39 -41 42 -41
29z"/>
<path d="M545 2731 c6 -5 51 -25 100 -44 50 -19 99 -38 110 -42 16 -6 18 -5 8
5 -13 14 -105 53 -178 75 -27 8 -45 11 -40 6z"/>
<path d="M2777 2559 c-40 -23 -6 -90 35 -68 10 5 18 21 18 34 0 29 -28 47 -53
34z"/>
<path d="M2972 2558 c-19 -19 -14 -56 8 -63 23 -7 50 10 50 31 0 13 -27 44
-39 44 -4 0 -12 -5 -19 -12z"/>
<path d="M2908 2525 c-4 -4 -4 -13 -1 -21 3 -8 -1 -14 -11 -14 -9 0 -16 7 -16
15 0 8 -5 15 -11 15 -6 0 -9 -8 -7 -17 4 -20 39 -29 63 -16 13 7 13 12 2 27
-7 9 -15 14 -19 11z"/>
<path d="M4230 335 c-24 -29 8 -75 44 -62 30 12 14 77 -20 77 -6 0 -17 -7 -24
-15z"/>
<path d="M4444 335 c-11 -27 5 -65 27 -65 24 0 33 21 25 55 -7 28 -43 35 -52
10z"/>
<path d="M4326 281 c-4 -5 -2 -12 3 -15 5 -4 12 -2 15 3 4 5 2 12 -3 15 -5 4
-12 2 -15 -3z"/>
<path d="M4390 269 c0 -5 5 -7 10 -4 6 3 10 8 10 11 0 2 -4 4 -10 4 -5 0 -10
-5 -10 -11z"/>
<path d="M1762 114 c-7 -8 -8 -14 -3 -14 10 0 25 19 20 25 -2 1 -10 -3 -17
-11z"/>
<path d="M1825 100 c3 -5 10 -10 16 -10 5 0 9 5 9 10 0 6 -7 10 -16 10 -8 0
-12 -4 -9 -10z"/>
<path d="M3550 4934 c0 -14 3 -14 15 -4 8 7 15 14 15 16 0 2 -7 4 -15 4 -8 0
-15 -7 -15 -16z"/>
<path d="M3973 4943 c10 -3 17 -12 15 -21 -3 -15 -24 -17 -221 -13 l-217 4 0
-306 c0 -276 2 -307 18 -326 17 -22 19 -22 333 -19 250 2 319 6 332 17 15 12
17 47 17 322 l0 309 -74 0 c-96 0 -139 9 -132 26 4 11 -6 14 -42 13 -26 -1
-39 -3 -29 -6z m-333 -98 c0 -16 -35 -21 -44 -6 -8 12 4 21 26 21 10 0 18 -7
18 -15z m58 -2 c2 -8 -5 -13 -17 -13 -12 0 -21 6 -21 16 0 18 31 15 38 -3z
m47 6 c10 -15 -1 -23 -20 -15 -9 3 -13 10 -10 16 8 13 22 13 30 -1z m269 -108
l69 -69 -12 -49 c-15 -59 -26 -73 -58 -73 -35 0 -40 27 -9 59 14 15 26 34 25
42 -1 7 -25 36 -54 62 l-52 48 -62 -37 -61 -36 0 -57 c1 -56 1 -56 48 -88 57
-39 63 -40 80 -13 21 34 33 23 30 -26 -5 -76 -21 -77 -127 -4 -65 44 -90 67
-87 79 2 9 7 42 11 74 l7 58 75 50 c42 27 83 49 92 49 9 0 47 -31 85 -69z
m-214 -378 c0 -10 -24 -13 -100 -13 -82 0 -100 3 -100 15 0 12 18 14 100 13
76 -1 100 -5 100 -15z"/>
<path d="M1700 4742 c0 -5 25 -12 56 -15 31 -3 64 -13 73 -21 19 -18 31 -20
31 -8 0 5 -17 16 -37 25 -48 20 -123 32 -123 19z"/>
<path d="M1882 4688 c3 -7 13 -15 24 -17 16 -3 17 -1 5 13 -16 19 -34 21 -29
4z"/>
<path d="M1847 4663 c-4 -3 -7 -11 -7 -17 0 -6 5 -5 12 2 6 6 9 14 7 17 -3 3
-9 2 -12 -2z"/>
<path d="M1723 4653 c-21 -8 -15 -22 7 -16 11 3 20 9 20 14 0 10 -8 10 -27 2z"/>
<path d="M1635 4613 c-57 -29 -129 -83 -121 -91 3 -3 14 1 23 9 10 8 27 19 38
25 129 70 129 70 118 77 -4 3 -30 -6 -58 -20z"/>
<path d="M2040 4616 c0 -2 7 -7 16 -10 8 -3 12 -2 9 4 -6 10 -25 14 -25 6z"/>
<path d="M2021 4084 c0 -11 3 -14 6 -6 3 7 2 16 -1 19 -3 4 -6 -2 -5 -13z"/>
<path d="M536 3808 c-10 -19 -17 -41 -14 -49 3 -8 12 1 22 25 21 51 16 68 -8
24z"/>
<path d="M13 3266 c4 -10 7 -22 7 -27 0 -5 4 -9 9 -9 12 0 2 38 -12 47 -7 4
-8 0 -4 -11z"/>
<path d="M0 3095 c0 -63 1 -65 20 -53 12 8 18 19 14 30 -3 11 0 18 8 18 10 0
10 2 -1 9 -9 6 -10 11 -2 15 14 9 6 22 -20 36 -18 10 -19 7 -19 -55z"/>
<path d="M870 3150 c0 -5 5 -10 11 -10 5 0 7 5 4 10 -3 6 -8 10 -11 10 -2 0
-4 -4 -4 -10z"/>
<path d="M2081 2010 c0 -8 4 -22 9 -30 12 -18 12 -2 0 25 -6 13 -9 15 -9 5z"/>
<path d="M3248 1493 c6 -2 18 -2 25 0 6 3 1 5 -13 5 -14 0 -19 -2 -12 -5z"/>
<path d="M597 1479 c7 -7 15 -10 18 -7 3 3 -2 9 -12 12 -14 6 -15 5 -6 -5z"/>
<path d="M2190 1370 c-14 -10 -22 -21 -19 -24 3 -3 16 5 29 19 28 30 24 32
-10 5z"/>
<path d="M2314 1340 c-32 -16 -70 -39 -84 -50 -15 -12 1 -7 40 13 36 18 83 40
105 49 28 11 34 16 19 17 -11 1 -47 -12 -80 -29z"/>
<path d="M2993 1323 c9 -2 23 -2 30 0 6 3 -1 5 -18 5 -16 0 -22 -2 -12 -5z"/>
<path d="M911 909 c-30 -5 -57 -12 -60 -15 -8 -8 120 5 156 16 27 8 27 8 -7 8
-19 0 -59 -4 -89 -9z"/>
<path d="M1068 913 c12 -2 32 -2 45 0 12 2 2 4 -23 4 -25 0 -35 -2 -22 -4z"/>
<path d="M784 594 l-59 -56 63 53 c57 48 68 59 59 59 -2 0 -30 -25 -63 -56z"/>
<path d="M1517 39 c4 -15 8 -17 14 -8 8 14 3 29 -11 29 -4 0 -6 -9 -3 -21z"/>
<path d="M0 15 c0 -10 10 -15 33 -14 17 0 25 3 17 6 -8 3 -23 10 -32 15 -13 6
-18 5 -18 -7z"/>
</g>
</svg>
